Simulation
nRows=19
nColumns=15
endheader
time  TH_x TH_y TH_z SC_y  SC_z  SC_x  AC_y  AC_z  AC_x  GH_y  GH_z  GH_yy  EL_x  PS_y
1.424999999999999  0.000000  0.000000  0.000000  -29.496633013352454  2.6555984743489756  26.35740735883164  60.803697734094  15.74995642882234  5.279677558931217  37.502685054334904  48.44010468647845  -34.77007120108884  24.7708982738699  120.000000
1.453499999999999  0.000000  0.000000  0.000000  -29.300013618841476  2.882069905162576  25.49933059250076  60.99092019984534  15.404501163463964  4.816788851081057  38.37044842986119  48.10744117669171  -35.03459638955975  24.555801477546076  120.000000
1.4819999999999989  0.000000  0.000000  0.000000  -29.107366755621335  3.127221081618022  24.48334865399937  61.1284458960961  15.027409201246089  4.40297474158431  39.38553407035746  47.72250109812535  -35.32445224639323  24.334622605528324  120.000000
1.5104999999999988  0.000000  0.000000  0.000000  -28.915016657653396  3.372608019803177  23.32780917248401  61.19473302290991  14.627306245916072  4.060638112214834  40.52845597562664  47.26202098778431  -35.61018465921921  24.108506125154843  120.000000
1.538999999999999  0.000000  0.000000  0.000000  -28.718105132582938  3.6002518994784314  22.049087813395886  61.17101746929492  14.213717447463022  3.8016262400781304  41.76496069413424  46.69402739834701  -35.85350380606755  23.875524468414948  120.000000
1.567499999999999  0.000000  0.000000  0.000000  -28.509912533378714  3.7944527744023926  20.670442104309874  61.046608033041004  13.799273078411888  3.6264214715616077  43.05559520123639  45.98411985051276  -36.01552676086022  23.632158882987508  120.000000
1.595999999999999  0.000000  0.000000  0.000000  -28.278763475066587  3.9445719306492886  19.213959361741683  60.82419238726597  13.39795761709589  3.5285718854540726  44.36574206021265  45.10420344780167  -36.06523395642098  23.376617675746605  120.000000
1.624499999999999  0.000000  0.000000  0.000000  -28.01353158471703  4.044286464497913  17.704699471529608  60.517248021033105  13.021212757808572  3.49589999572595  45.67142734101526  44.035112807022685  -35.98511496785249  23.108350199466734  120.000000
1.652999999999999  0.000000  0.000000  0.000000  -27.708033048694375  4.087861203315762  16.16606139621007  60.14389006525855  12.67787965175577  3.517531066344425  46.95898310980437  42.774150171055524  -35.77291213104764  22.828849714518576  120.000000
1.6814999999999989  0.000000  0.000000  0.000000  -27.367340016606796  4.0723244478372  14.624513469431674  59.72250465325987  12.373937164925845  3.5820147873857673  48.22195808578183  41.3328602759642  -35.43937290155609  22.539645641660623  120.000000
1.7099999999999989  0.000000  0.000000  0.000000  -27.008255106340986  4.002882531534089  13.105031505213622  59.26908633538166  12.11680491406996  3.6745175057715658  49.45398790492409  39.73925194346713  -35.003107914735395  22.241653411691207  120.000000
1.7384999999999988  0.000000  0.000000  0.000000  -26.656765678454867  3.8892090413291425  11.632451367346574  58.79708906494775  11.911566564765856  3.779925748624599  50.65138942373835  38.02810794397189  -34.48642079854434  21.935468777977317  120.000000
1.7669999999999988  0.000000  0.000000  0.000000  -26.337787295058945  3.7379205499969115  10.223867335326895  58.31595851001112  11.756599203849465  3.8859802402766466  51.81368907244709  36.23515927863072  -33.9122280463076  21.622194762263877  120.000000
1.7954999999999988  0.000000  0.000000  0.000000  -26.07281336594268  3.5541425540671843  8.891663313229067  57.833464159129896  11.6451980582152  3.9849551689105422  52.941595739534634  34.39093397554455  -33.29751162411915  21.30451692009509  120.000000
1.8239999999999987  0.000000  0.000000  0.000000  -25.873016150328706  3.3450816912912753  7.645060086304325  57.3573252860999  11.5702734853499  4.072279891429361  54.02953125445783  32.52193902556902  -32.646229939007895  20.987606911095344  120.000000
1.8524999999999987  0.000000  0.000000  0.000000  -25.739015729421187  3.1203848029650407  6.492775555256633  56.89544992956715  11.526229761802094  4.147722493499198  55.06085565484899  30.649346056093258  -31.944835170203422  20.679172704157722  120.000000
1.8809999999999987  0.000000  0.000000  0.000000  -25.66106173292245  2.8900036877759785  5.4433812706397315  56.45573593391512  11.509353083919967  4.214973401163312  56.00757617201547  28.791111267934557  -31.164221870711245  20.388911576050443  120.000000
1.9094999999999986  0.000000  0.000000  0.000000  -25.62273636427721  2.665115148098485  4.504806347630939  56.04378567700452  11.517691740043558  4.280582713864877  56.83293535109438  26.96260705379702  -30.265514731447162  20.126924303244195  120.000000
1.9379999999999986  0.000000  0.000000  0.000000  -25.605436131669205  2.4581410222504383  3.681797139396257  55.66448567198265  11.549387587520211  4.348824895581004  57.500364907740334  25.179683122440267  -29.212031684905927  19.902637796584795  120.000000
